<svg width="92" height="50" viewBox="0 0 92 50" fill="none" xmlns="http://www.w3.org/2000/svg">
<path d="M37.108 44.7543C37.108 44.7543 33.4076 48.0715 32.4821 48.4206C31.5577 48.7696 40.2565 49.818 42.4794 48.4206C44.6961 47.0231 45.6248 47.2059 46.9183 46.9398C48.217 46.6745 48.0295 45.2769 46.9183 45.4516C45.8118 45.6259 45.2571 44.405 44.6961 44.7543C44.1454 45.1033 46.1796 42.4837 52.8434 41.2611C59.5038 40.0401 63.9506 40.3877 69.1283 41.2611C74.3151 42.1357 89.3053 40.3877 91.3438 37.4215C91.3438 37.4215 80.0528 38.2921 74.6819 36.1979C69.3168 34.1046 56.9856 34.76 51.5958 37.082C46.6433 39.2149 43.9586 41.0943 43.0297 42.1374C43.0297 42.1374 40.2692 35.4992 35.2596 32.8806C28.3073 29.2465 26.3848 26.5963 16.9023 26.7072C11.347 26.775 2.51654 22.6605 0.646135 19.2602C-0.122022 17.864 -1.88247 23.7939 7.61988 29.1214C7.61988 29.1214 14.1708 34.0923 26.006 36.3709C37.1377 38.5193 38.1484 43.8423 37.108 44.7543Z" fill="#1BAAB3"/>
<path d="M54.5423 18.4449C54.5423 18.4449 57.199 20.8234 57.8625 21.0737C58.5272 21.3273 52.2822 22.0757 50.6888 21.0737C49.0981 20.0707 48.4319 20.2039 47.5032 20.0134C46.5728 19.8231 46.7074 18.8204 47.5032 18.9453C48.2963 19.0712 48.6962 18.1941 49.0981 18.4449C49.4938 18.6952 48.0333 16.8158 43.2508 15.9377C38.4703 15.0614 35.2783 15.3099 31.5647 15.9377C27.841 16.565 17.0831 15.3099 15.6211 13.1815C15.6211 13.1815 23.7248 13.8078 27.5768 12.3036C31.4283 10.7995 40.2784 11.2727 44.1476 12.9374C47.7029 14.4692 49.6287 15.817 50.2931 16.5665C50.2931 16.5665 52.276 11.8027 55.8699 9.9231C60.8591 7.31421 62.2391 5.41265 69.045 5.49218C73.0309 5.5413 79.3679 2.5861 80.7102 0.148495C81.2622 -0.853026 82.5243 3.40062 75.7069 7.2247C75.7069 7.2247 71.0052 10.7905 62.5116 12.4273C54.5223 13.9703 53.7973 17.7912 54.5423 18.4449Z" fill="#1BAAB3"/>
</svg>
