<svg width="37" height="22" viewBox="0 0 37 22" fill="none" xmlns="http://www.w3.org/2000/svg">
<path d="M0.85849 19.1617C2.03945 17.8123 4.28722 14.9427 6.44653 15.2136C8.20361 15.4343 9.95107 16.9728 11.2515 18.4736C12.4189 19.8212 13.2255 21.1378 13.3392 21.4444C13.3392 21.4444 13.349 21.3075 13.3547 21.082C13.3816 19.9638 13.2856 16.4165 11.2263 13.839C10.9756 13.5248 10.7039 13.2202 10.3917 12.9406C9.66302 12.2929 9.0171 11.9015 8.55169 11.6721C8.08388 11.4398 7.80094 11.3723 7.80094 11.3723C7.80094 11.3723 8.21535 8.32622 12.0982 8.07652C14.1877 7.9455 19.1529 12.3986 19.229 12.4797C19.229 12.4797 19.2156 12.526 19.198 12.5954C19.1265 12.8825 18.9738 13.6855 19.2505 14.502C19.3949 14.9182 19.5512 14.8239 19.7709 14.6291C20.0829 14.3485 20.5256 13.8578 21.2475 14.333C22.4776 15.1388 25.5851 17.2568 25.5851 17.2568C25.5851 17.2568 25.6603 17.3127 25.8086 17.4111C25.67 16.6901 25.0993 12.8845 28.469 11.8279C28.8921 11.6948 29.1708 12.1721 29.1708 12.1721C29.1708 12.1721 28.047 12.5296 27.0793 13.7539C26.2725 14.7708 25.9619 16.4037 26.3776 17.57C26.4049 17.6462 26.4256 17.7302 26.4604 17.8024C26.6031 17.8851 26.7726 17.974 26.948 18.0655C28.428 18.8406 31.0498 19.9432 34.5438 20.3144C35.1251 20.378 35.5677 20.3645 35.9126 20.3085C36.3371 20.2392 36.6107 20.1061 36.7763 19.9529C36.711 19.9924 36.6251 20.0155 36.52 20.0079C36.2152 19.9856 35.7201 19.7669 35.446 19.6676C35.0105 19.5124 34.1933 19.1335 33.5816 18.7663C33.3581 18.6331 33.1606 18.4984 33.0227 18.3788C32.7778 18.1695 32.9121 18.0124 33.0442 17.9972C33.4718 17.9432 36.1942 18.6814 37 19.2135C36.9971 19.2039 36.9943 19.1951 36.9943 19.1951C36.9943 19.1951 36.6125 13.9812 31.8614 8.61789C31.0007 7.64826 30.0144 6.67172 28.8433 5.72226C28.8433 5.72226 27.5891 4.52987 25.5162 3.24481C24.4595 2.59137 23.1947 1.91191 21.7661 1.35264C20.4627 0.843913 18.9745 0.413857 17.4304 0.182508C15.9671 -0.0381616 14.4537 -0.0786263 13.0003 0.171977C4.6914 1.60054 6.32409 10.5844 6.19036 10.9351C6.19036 10.9351 4.14191 10.8139 2.57467 13.4067C1.00245 16.0008 -0.226795 19.0834 0.0353906 19.7842C0.10654 19.9782 0.407223 19.6775 0.85849 19.1617ZM32.5255 13.5219C32.9939 13.3068 33.552 13.5152 33.7668 13.9856C33.7978 14.0529 33.8016 14.1244 33.816 14.1946C33.9001 14.614 33.7094 15.0468 33.3062 15.2309C33.092 15.3293 32.8656 15.3293 32.6584 15.2694C32.4029 15.1961 32.1784 15.0284 32.0604 14.7682C31.842 14.2959 32.0512 13.7369 32.5255 13.5219Z" fill="#1BAAB3"/>
</svg>
