<svg width="172" height="140" viewBox="0 0 172 140" fill="none" xmlns="http://www.w3.org/2000/svg">
<path fill-rule="evenodd" clip-rule="evenodd" d="M202.423 95.0551C203.149 98.2055 202.729 97.6137 208.185 99.3719C213.034 100.82 211.426 99.1166 213.62 103.569C215.56 107.646 219.53 113.101 220.986 116.234C218.695 117.647 206.338 118.98 202.594 120.429C203.059 121.255 203.428 121.915 203.96 122.788C204.772 124.156 204.491 123.965 206.462 124.075C210.732 124.414 224.408 125.51 226.94 125.999C228.77 128.876 233.26 137.036 235.734 138.509C236.903 139.2 238.915 140.156 239.512 138.515C240.931 134.467 236.051 128.394 233.245 123.935C232.111 122.144 232.483 122.499 233.321 120.509C234.181 118.332 240.831 102.799 240.676 101.672C240.538 101.272 238.984 98.8893 238.708 98.3942C237.642 99.5127 236.552 100.818 235.58 102.101L229.607 109.401C228.752 110.662 227.544 111.989 226.526 113.037C225.322 110.892 224.024 108.886 222.75 106.693C216.406 95.8452 216.042 99.996 217.293 93.4823C217.931 89.8239 219.071 88.1424 216.054 86.7119C212.745 92.6475 208.831 95.1067 202.423 95.0551ZM209.157 89.4991C209.969 90.5612 208.457 91.8861 207.457 90.7997L206.224 89.1466C205.436 88.2016 206.855 86.71 207.878 87.9148L209.157 89.4991ZM1.09823 3.50099C-0.286123 3.58439 -0.387256 1.46996 0.952332 1.45762L2.07855 1.30286C3.58136 1.19607 3.56511 3.33231 2.29601 3.39361L1.09823 3.50099ZM8.54457 2.9257C7.15731 3.00828 7.05855 0.895459 8.37132 0.764657L10.486 0.664845C11.8717 0.581183 12.021 2.62455 10.6337 2.70713L8.54457 2.9257ZM16.9047 2.35928C15.5906 2.49034 15.371 0.399296 16.7583 0.316713L18.8705 0.215283C20.2551 0.133199 20.4742 2.22504 18.9709 2.3292L16.9047 2.35928ZM25.217 2.16737C23.809 2.13445 23.8931 0.0442255 25.2343 0.0329643L27.2979 -6.09827e-05C28.7778 0.0850287 28.6889 2.17203 27.2814 2.13832L25.217 2.16737ZM33.6194 2.14019C32.2119 2.10648 32.2987 0.019221 33.6372 0.00502927L35.7229 0.0907069C37.1322 0.12682 37.0449 2.21489 35.708 2.22672L33.6194 2.14019ZM41.952 2.3723C40.6129 2.38384 40.583 0.318915 42.0377 0.283158L44.1968 0.418645C45.4169 0.427845 45.5162 2.53989 43.9916 2.52932L41.952 2.3723ZM50.2794 2.90753C48.8475 2.75351 49.194 0.738686 50.4354 0.86606L52.5958 1.00128C53.9769 1.22342 53.7044 3.28726 52.3898 3.11142L50.2794 2.90753ZM58.6047 3.74673C57.2225 3.52617 57.4491 1.53025 58.8802 1.68373L60.9422 1.95735C62.3741 2.11137 61.9805 4.19565 60.668 4.02353L58.6047 3.74673ZM66.9311 4.89551C65.5462 4.67202 65.8209 2.60846 67.2028 2.83114L69.2685 3.1061C70.5807 3.28033 70.3755 5.39099 68.9943 5.16886L66.9311 4.89551ZM75.1094 6.25052C73.7028 5.90965 74.2358 3.91878 75.5728 4.2112L77.5871 4.55508C78.994 4.89727 78.484 7.00525 77.1953 6.64177L75.1094 6.25052ZM83.3098 8.02848C81.9758 7.73687 82.3686 5.65203 83.8211 5.92026L85.8127 6.4539C87.1459 6.74497 86.6844 8.78323 85.3496 8.49108L83.3098 8.02848ZM91.3709 10.0186C89.9411 9.56057 90.779 7.57241 91.9506 7.95903L94.0112 8.53715C95.4404 8.99593 94.6499 10.9125 93.4309 10.5975L91.3709 10.0186ZM99.4261 12.3113C98.0687 11.9012 98.7889 9.93698 100.029 10.3689L102.044 11.0196C103.401 11.4276 102.75 13.441 101.44 12.9615L99.4261 12.3113ZM107.315 15.0053C106.144 14.6187 106.607 12.5815 108.037 13.0387L110 13.7578C111.452 14.3351 110.474 16.2272 109.28 15.7247L107.315 15.0053ZM115.082 18.0243C113.821 17.4743 114.73 15.5335 115.922 16.0351L117.911 16.8741C119.173 17.4233 118.315 19.2952 117.051 18.7435L115.082 18.0243ZM122.78 21.3023C121.588 20.8007 122.306 18.8315 123.641 19.4313C124.296 19.6704 124.903 19.9806 125.63 20.2689C126.705 20.7937 126.054 22.8058 124.722 22.2094C124.043 21.85 123.387 21.6117 122.78 21.3023ZM130.358 24.9069C129.07 24.2371 130.071 22.4622 131.287 23.0841L133.109 24.0114C134.396 24.6802 133.349 26.5277 132.179 25.8366L130.358 24.9069ZM137.696 28.8604C136.481 28.2417 137.458 26.3491 138.743 27.015L140.589 28.0634C141.686 28.7047 140.827 30.576 139.472 29.8612L137.696 28.8604ZM144.844 33.0968C143.652 32.2883 144.91 30.585 145.962 31.2982L147.763 32.4158C148.951 33.2222 147.811 34.9037 146.643 34.2155L144.844 33.0968ZM151.922 37.5906C150.8 36.8298 151.87 35.1001 153.11 35.8389C153.67 36.2185 154.3 36.6458 154.86 37.0254C155.912 37.7391 154.863 39.5851 153.671 38.7771C153.041 38.3499 152.482 37.9702 151.922 37.5906ZM158.759 42.432C157.546 41.5066 158.945 39.8979 160.017 40.7266L161.651 41.9386C162.794 42.8163 161.466 44.4706 160.394 43.6419L158.759 42.432ZM165.387 47.4378C164.311 46.607 165.569 44.9036 166.667 45.8519L168.325 47.1808C169.397 48.0103 168.116 49.5957 167.044 48.7649L165.387 47.4378ZM171.774 52.7933C170.82 51.942 172.076 50.2369 173.173 51.1846C173.687 51.6355 174.268 52.1325 174.78 52.5832C175.785 53.3664 174.527 55.0697 173.429 54.1201C172.918 53.6716 172.406 53.2217 171.774 52.7933ZM178.068 58.2888C177.021 57.272 178.581 55.8761 179.488 56.7977L181.05 58.2653C182.027 59.2345 180.537 60.6801 179.63 59.758L178.068 58.2888ZM184.127 64.136C183.147 63.1646 184.567 61.6745 185.546 62.6456L187.105 64.111C188.015 65.0353 186.547 66.5969 185.569 65.6245L184.127 64.136ZM189.898 70.0964C188.991 69.1743 190.458 67.6129 191.458 68.7006L192.902 70.1908C193.853 71.3484 192.202 72.5797 191.341 71.5882L189.898 70.0964ZM195.532 76.2674C194.646 75.1571 196.231 73.8808 197.091 74.8723L198.557 76.4807C199.44 77.5902 197.858 78.8687 196.925 77.8278L195.532 76.2674ZM200.948 82.6015C200.088 81.6099 201.649 80.2125 202.58 81.2552L203.928 82.884C204.789 83.8774 203.249 85.3896 202.298 84.2327L200.948 82.6015Z" fill="#1BAAB3"/>
</svg>
