<svg width="221" height="97" viewBox="0 0 221 97" fill="none" xmlns="http://www.w3.org/2000/svg">
<path d="M220.864 68.5645L201.302 96.5377H7.00046C7.00046 96.5377 1.16911 92.4458 0 78.4449L184.378 77.8889L191.892 75.0374C198.533 72.4845 205.446 70.7048 212.494 69.7336L220.864 68.5645Z" fill="#1BAAB3"/>
<path d="M174.454 0H176.207V84.6042H174.454V0Z" fill="#1BAAB3"/>
<path d="M60.9809 17.6509H62.7346V66.9534H60.9809V17.6509Z" fill="#1BAAB3"/>
<path d="M12.8442 66.3689H14.5979V83.4352H12.8442V66.3689Z" fill="#1BAAB3"/>
<path d="M52.3246 59.0261H71.3869V66.9533H52.3246V59.0261Z" fill="#1BAAB3"/>
<path d="M118.067 59.0262L114.174 40.748L101.143 43.2716L97.6498 59.0262H118.067Z" fill="#1BAAB3"/>
<path d="M3.22039 65.7842H35.8987V66.9533H3.22039V65.7842Z" fill="#1BAAB3"/>
<path d="M28.3139 65.7842H91.0471V82.5653H17.5352L28.3139 65.7842ZM80.1401 74.909H85.9714V72.0575H80.1401V74.909ZM71.9705 74.909H77.8019V72.0575H71.9705V74.909ZM60.978 74.7522C61.326 74.755 61.667 74.6542 61.9576 74.4626C62.2481 74.271 62.4751 73.9972 62.6096 73.6762C62.7441 73.3552 62.78 73.0014 62.7128 72.6599C62.6456 72.3184 62.4783 72.0046 62.2322 71.7585C61.9861 71.5124 61.6723 71.3451 61.3308 71.2779C60.9893 71.2107 60.6355 71.2466 60.3145 71.3811C59.9935 71.5156 59.7198 71.7426 59.5281 72.0331C59.3365 72.3237 59.2357 72.6647 59.2385 73.0128C59.2423 73.4729 59.4267 73.9132 59.7521 74.2386C60.0775 74.564 60.5178 74.7484 60.978 74.7522ZM54.0773 74.7522C54.4248 74.7522 54.7644 74.6489 55.0531 74.4556C55.3418 74.2623 55.5665 73.9875 55.6988 73.6663C55.8311 73.345 55.865 72.9917 55.7962 72.6511C55.7274 72.3105 55.5589 71.9981 55.3122 71.7534C55.0655 71.5087 54.7517 71.3428 54.4106 71.2768C54.0695 71.2107 53.7165 71.2475 53.3963 71.3824C53.0761 71.5174 52.8032 71.7443 52.6122 72.0346C52.4213 72.3249 52.3208 72.6653 52.3236 73.0128C52.3273 73.4705 52.5098 73.9086 52.8321 74.2336C53.1545 74.5587 53.5911 74.7447 54.0488 74.7522H54.0773ZM47.1767 74.7522C47.5241 74.7522 47.8637 74.6489 48.1524 74.4556C48.4411 74.2623 48.6659 73.9875 48.7982 73.6663C48.9305 73.345 48.9644 72.9917 48.8955 72.6511C48.8267 72.3105 48.6583 71.9981 48.4116 71.7534C48.1649 71.5087 47.8511 71.3428 47.51 71.2768C47.1689 71.2107 46.8158 71.2475 46.4956 71.3824C46.1754 71.5174 45.9026 71.7443 45.7116 72.0346C45.5206 72.3249 45.4202 72.6653 45.423 73.0128C45.4267 73.4754 45.6132 73.9178 45.9417 74.2436C46.2701 74.5694 46.714 74.7522 47.1767 74.7522ZM40.276 74.7522C40.6235 74.7522 40.9631 74.6489 41.2518 74.4556C41.5405 74.2623 41.7652 73.9875 41.8975 73.6663C42.0298 73.345 42.0637 72.9917 41.9949 72.6511C41.926 72.3105 41.7576 71.9981 41.5109 71.7534C41.2642 71.5087 40.9504 71.3428 40.6093 71.2768C40.2682 71.2107 39.9152 71.2475 39.595 71.3824C39.2748 71.5174 39.0019 71.7443 38.8109 72.0346C38.62 72.3249 38.5195 72.6653 38.5223 73.0128C38.5223 73.2424 38.5678 73.4697 38.6561 73.6817C38.7444 73.8937 38.8738 74.0861 39.0368 74.2478C39.1999 74.4095 39.3933 74.5373 39.606 74.6239C39.8187 74.7105 40.0464 74.7541 40.276 74.7522ZM33.3611 74.7522C33.7092 74.755 34.0502 74.6542 34.3407 74.4626C34.6313 74.271 34.8583 73.9972 34.9928 73.6762C35.1273 73.3552 35.1632 73.0014 35.096 72.6599C35.0288 72.3184 34.8615 72.0046 34.6154 71.7585C34.3692 71.5124 34.0555 71.3451 33.7139 71.2779C33.3724 71.2107 33.0187 71.2466 32.6977 71.3811C32.3766 71.5156 32.1029 71.7426 31.9113 72.0331C31.7197 72.3237 31.6189 72.6647 31.6217 73.0128C31.6254 73.4729 31.8099 73.9132 32.1353 74.2386C32.4607 74.564 32.901 74.7484 33.3611 74.7522Z" fill="#1BAAB3"/>
<path d="M86.6563 61.4073V57.4722H127.789V82.5654H86.6563V64.0306H99.1174V61.4073H86.6563ZM112.847 61.4073H100.386V64.0306H112.847V61.4073ZM112.22 74.9091H117.253V72.0576H112.22V74.9091ZM105.091 74.9091H110.081V72.0576H105.034L105.091 74.9091ZM95.7811 72.0576H90.7482V74.9091H95.7241L95.7811 72.0576ZM97.9197 72.0576V74.9091H102.896V72.0576H97.9197Z" fill="#1BAAB3"/>
<path d="M158.715 46.9644V84.6042H127.206V46.9644H158.715ZM133.18 51.3414H129.387V55.191H133.18V51.3414ZM133.18 59.511H129.387V63.3035H133.18V59.511ZM139.596 51.3414H134.634V55.191H139.596V51.3414ZM156.505 51.3414H142.447V55.191H156.519L156.505 51.3414ZM156.22 59.511H151.258V63.3035H156.234L156.22 59.511ZM150.089 74.9091H155.935V72.0576H150.104L150.089 74.9091ZM147.922 59.4682H142.96V63.2607H147.922V59.4682ZM139.596 74.9091H145.441V72.0576H139.596V74.9091ZM139.596 59.4682H134.634V63.2607H139.596V59.4682ZM129.23 74.8664H135.076V72.0148H129.245L129.23 74.8664Z" fill="#1BAAB3"/>
</svg>
