<svg width="128" height="32" viewBox="0 0 128 32" fill="none" xmlns="http://www.w3.org/2000/svg">
<path d="M103.926 17.7071L17.0832 17.4664L35.0551 13.1499H52.706L59.5257 10.1573L47.8119 9.98882L51.8235 7.86269L55.9554 5.45574H77.6179V2.51927L58.3623 2.40695L61.0421 0H86.9488V2.40695L99.6174 8.96186H116.771V11.5052H99.7859C97.3789 15.7735 103.926 17.7071 103.926 17.7071ZM52.6819 16.1747H95.4052C74.4487 8.78535 52.6819 16.1747 52.6819 16.1747Z" fill="#1BAAB3"/>
<path d="M117.571 17.6108C123.115 21.2292 126.341 27.1663 128.001 31.3304H15.4365C9.72797 27.2019 4.54419 22.3926 0 17.009L117.571 17.6108ZM108.545 23.227H110.15C111.032 23.227 111.754 22.6814 111.754 22.0235C111.754 21.3656 111.032 20.82 110.15 20.82H108.545C107.663 20.82 106.941 21.3576 106.941 22.0235C106.941 22.6894 107.679 23.227 108.545 23.227ZM98.1151 23.227H99.7197C100.602 23.227 101.324 22.6814 101.324 22.0235C101.324 21.3656 100.602 20.82 99.7197 20.82H98.1151C97.2326 20.82 96.5105 21.3576 96.5105 22.0235C96.5105 22.6894 97.2486 23.227 98.1151 23.227ZM87.685 23.227H89.2896C90.1722 23.227 90.8943 22.6814 90.8943 22.0235C90.8943 21.3656 90.1722 20.82 89.2896 20.82H87.685C86.8025 20.82 86.0804 21.3576 86.0804 22.0235C86.0804 22.6894 86.8185 23.227 87.685 23.227ZM55.5924 23.227H57.197C58.0796 23.227 58.8017 22.6814 58.8017 22.0235C58.8017 21.3656 58.0796 20.82 57.197 20.82H55.5924C54.7099 20.82 53.9878 21.3576 53.9878 22.0235C53.9878 22.6894 54.7259 23.227 55.5924 23.227ZM45.1623 23.227H46.767C47.6495 23.227 48.3716 22.6814 48.3716 22.0235C48.3716 21.3656 47.6495 20.82 46.767 20.82H45.1623C44.2798 20.82 43.5577 21.3576 43.5577 22.0235C43.5577 22.6894 44.2958 23.227 45.1623 23.227ZM34.7322 23.227H36.3369C37.2194 23.227 37.9415 22.6814 37.9415 22.0235C37.9415 21.3656 37.2194 20.82 36.3369 20.82H34.7322C33.8497 20.82 33.1276 21.3576 33.1276 22.0235C33.1276 22.6894 33.8657 23.227 34.7322 23.227Z" fill="#1BAAB3"/>
</svg>
