<svg width="137" height="103" viewBox="0 0 137 103" fill="none" xmlns="http://www.w3.org/2000/svg">
<path d="M113.477 40.7832C118.99 30.0376 114.729 21.6078 102.828 17.6376C104.836 21.9489 106.706 26.3214 110.721 29.7671C109.634 29.3046 108.55 28.845 107.67 28.8614C107.761 32.0849 108.311 35.4425 109.453 38.0326C109.325 39.5201 108.606 38.2254 108.606 38.2254C106.944 26.1643 87.162 24.0445 81.9952 31.0681C84.7335 31.4244 87.5131 31.8575 90.7225 33.293C92.7609 32.7075 95.9621 32.0793 97.7784 32.6893C96.6524 33.1526 95.4561 33.4684 94.7354 34.8882C98.547 36.8955 101.322 39.8247 105.121 39.1653C105.467 39.6769 105.974 40.694 105.974 40.694C106.256 41.5745 106.217 41.9991 106.217 41.9991C104.867 43.2262 103.017 43.3841 101.557 43.4859C90.0322 44.3076 82.0595 60.7086 85.8919 71.9929C87.6342 68.6531 89.2276 64.9715 91.2712 62.3458C91.5283 60.0908 91.2923 56.8717 93.0737 54.6914C92.986 56.1336 93.0473 57.5115 94.0478 58.4867C96.4651 55.0243 100.267 53.493 100.655 48.0895C101.917 48.6542 100.214 50.4998 101.308 51.1358C102.317 50.0584 103.377 49.0858 104.725 48.7768C104.725 48.7768 105.395 49.3481 105.956 50.3515C106.082 50.5726 106.351 50.7342 106.68 50.8657C106.416 60.1506 104.653 92.5291 93.0845 99.9936C89.8948 98.68 86.2968 97.8192 82.2393 97.5818C84.3992 55.1064 54.1164 33.4907 44.1052 27.54C44.4224 27.2045 44.72 26.888 44.9645 26.6357C46.258 26.0978 48.1894 27.8264 48.7214 26.8557C49.1044 25.49 47.1689 24.7351 47.6233 23.7299C51.4059 28.841 56.4193 30.4243 61.5764 31.6209C61.2035 29.9387 60.3917 28.1002 60.3386 26.5358C62.5182 29.182 64.846 31.3969 66.5898 35.2902C70.6994 36.8564 73.7981 41.3081 77.9258 42.8131C71.9008 23.4289 58.2942 13.0169 41.3007 19.877C41.3007 19.877 40.8204 19.16 40.703 17.6618C40.5492 15.7363 42.0262 14.9272 41.5303 15.3039C46.5285 15.6583 49.1858 12.4961 53.7203 9.42934C53.0646 8.16736 49.4239 7.96748 50.4872 6.92877C52.8231 6.19951 56.1529 7.87127 59.1461 7.2178C62.9183 6.39902 66.2722 3.87058 69.5068 3.44299C59.5458 -4.1241 37.0207 1.06836 36.2855 16.2062C30.9842 1.8266 19.4509 -1.43331 5.52044 6.27531C11.2687 8.10012 16.9611 10.1096 23.6288 9.31604C22.2591 9.93421 20.8983 10.5513 20.1635 11.3916C23.2462 14.0798 26.8575 16.4447 30.2575 17.6046C31.5373 19.0003 29.7095 18.5619 29.7095 18.5619C17.0139 9.75366 -1.95378 26.4095 0.163031 37.2703C2.8486 35.0116 5.64042 32.7915 9.73993 31.0302C10.9443 28.6192 13.1046 25.0881 15.2396 23.9138C14.7032 25.3663 13.968 26.7572 14.6805 28.6504C19.8243 26.8144 24.9436 26.7368 27.5912 22.6221C28.3714 22.7395 29.7515 23.1396 29.7515 23.1396C30.8174 23.6292 31.1848 24.0352 31.1848 24.0352C31.1695 26.3471 29.7248 28.2116 28.569 29.6683C19.4324 41.135 27.9026 62.672 41.7343 68.7813C40.1138 64.2876 38.0427 59.6405 37.3442 55.4738C35.4622 53.2912 32.2499 50.7509 31.7472 47.2135C33.0159 48.5379 34.3585 49.6613 36.1231 49.5666C34.9692 44.3292 36.8093 39.467 32.096 34.4629C33.7028 33.7752 33.9684 36.943 35.4997 36.4719C35.3601 34.6025 35.36 32.7748 36.2308 31.2539C36.2308 31.2539 37.3401 31.1197 38.7585 31.453C39.4124 31.606 40.3148 31.0804 41.2554 30.3099C49.425 34.9603 80.5452 55.4994 78.4072 97.3976L80.3257 97.4953C77.847 97.4704 75.5779 97.7104 73.4889 98.1577L74.3817 97.8055C71.0857 89.5058 61.7997 83.0744 56.2915 79.8591C56.3896 79.5656 56.4731 79.3869 56.4731 79.3869C57.5434 79.1915 58.6219 79.5656 59.6952 80.0322C60.2892 79.2245 58.4726 78.4199 59.2104 77.6152C61.186 81.4223 64.4307 81.3399 67.2752 83.0963C67.6958 82.0751 67.3117 81.0553 66.7905 80.0352C68.7687 81.0523 69.6071 83.4722 70.5028 85.0303C72.8139 86.2945 75.1236 88.4719 77.4347 90.3524C76.6816 80.9461 65.7465 71.5326 57.1158 74.5537C56.0173 74.9348 54.6257 75.4044 53.2593 74.9337C53.2593 74.9337 53.097 74.6357 53.0301 73.9065C53.0301 73.9065 53.0747 73.0108 53.1683 72.5286C56.1347 71.8131 57.2303 68.8192 59.3723 66.1626C58.4053 65.3579 57.4312 65.5058 56.4676 65.5203C57.6006 64.5031 60.1243 63.9611 61.7882 63.7482C63.6713 61.6971 65.5567 60.5091 67.4316 59.3942C61.4765 55.9096 47.7678 63.6501 50.343 72.9406C50.343 72.9406 50.2215 74.1075 49.6654 73.065C49.6806 70.8227 49.0298 68.2114 48.0865 65.8468C47.4383 66.1024 46.7967 66.7774 46.1499 67.458C47.9859 63.6921 47.9773 59.9277 48.0836 56.1663C40.6781 62.7864 40.2267 70.245 47.6002 76.3205C38.5371 73.642 30.8467 85.8387 33.2529 93.2553C34.1698 91.4472 36.3464 89.9857 37.6069 87.9347C38.6073 86.3053 38.3086 84.0042 39.2166 82.7772C40.0465 82.3678 39.4165 84.5492 40.0228 85.1975C42.7629 83.1591 45.1717 82.2437 45.9894 79.2256C45.6695 79.4452 46.4449 78.7378 47.5471 79.2256C48.4134 79.6046 48.7292 80.0318 48.7292 80.0318C41.1956 88.6279 44.5265 98.7833 54.697 106.317C54.6621 103.576 52.679 100.837 52.6051 98.093C50.667 96.2682 49.8441 94.4374 48.7318 92.6126C49.6487 92.9619 50.5581 93.817 51.4735 94.3847C51.8268 91.104 51.9301 87.8288 49.7014 84.5466C50.3861 84.4879 50.4251 85.7848 51.3082 85.8391C51.9943 85.7217 51.3754 84.2324 51.9538 83.5781C52.8674 83.1561 54.6799 82.4354 55.5656 81.6768C60.8528 84.8219 69.4949 90.8829 72.5424 98.4006C53.3455 103.269 112.366 109.475 95.0857 100.899C106.571 91.8054 108.33 60.9932 108.596 51.271C109.837 51.3802 111.212 51.355 112.061 51.3773C113.063 51.8439 113.088 53.8853 113.935 53.6746C114.934 53.1686 114.339 51.6429 115.16 51.3747C114.219 56.293 115.973 60.0462 118.03 63.6731C118.809 62.5624 119.439 61.1094 120.322 60.2416C119.948 62.9216 119.901 65.4534 118.575 68.5413C119.861 71.7577 118.932 75.9304 120.262 79.1272C128.288 65.2914 127.072 51.8468 114.024 45.6487C114.024 45.6487 114.183 44.9893 114.994 44.1204C116.029 43.0036 117.284 43.4301 116.801 43.3432C119.26 46.4255 122.514 46.2873 126.713 47.2796C127.092 46.219 125.264 44.0056 126.436 44.0658C128.103 45.0398 128.915 47.8621 130.885 49.2482C133.381 50.9946 136.629 51.5957 138.604 53.2389C137.679 43.4268 122.651 33.137 113.477 40.7832Z" fill="#1BAAB3"/>
</svg>
